HIERARCHY
ROOT joint_Root
{
	OFFSET 0.0 0.0 0.0
	CHANNELS 6 Xposition Yposition Zposition Zrotation Xrotation Yrotation 
	JOINT Hips
	{
		OFFSET 4.5925 91.4895 -427.239
		CHANNELS 6 Xposition Yposition Zposition Zrotation Xrotation Yrotation 
		JOINT Spine
		{
			OFFSET 15.7357 0.0 0.0
			CHANNELS 6 Xposition Yposition Zposition Zrotation Xrotation Yrotation 
			JOINT Chest
			{
				OFFSET 8.98455 -0.406207 0.0
				CHANNELS 6 Xposition Yposition Zposition Zrotation Xrotation Yrotation 
				JOINT Neck
				{
					OFFSET 16.3773 0.0 0.0
					CHANNELS 6 Xposition Yposition Zposition Zrotation Xrotation Yrotation 
					JOINT Head
					{
						OFFSET 6.45672 0.0 0.0
						CHANNELS 6 Xposition Yposition Zposition Zrotation Xrotation Yrotation 
						End Site
						{
							OFFSET 0.0 0.0 0.0
						}
					}
				}
				JOINT Shoulder_L
				{
					OFFSET 12.9942 -0.242716 4.98039
					CHANNELS 6 Xposition Yposition Zposition Zrotation Xrotation Yrotation 
					JOINT UpperArm_L
					{
						OFFSET 5.34809 0.0 0.0
						CHANNELS 6 Xposition Yposition Zposition Zrotation Xrotation Yrotation 
						JOINT LowerArm_L
						{
							OFFSET 24.3286 1.87007e-05 0.0
							CHANNELS 6 Xposition Yposition Zposition Zrotation Xrotation Yrotation 
							JOINT Hand_L
							{
								OFFSET 22.2916 0.0 0.0
								CHANNELS 6 Xposition Yposition Zposition Zrotation Xrotation Yrotation 
								End Site
								{
									OFFSET 0.0 0.0 0.0
								}
							}
						}
					}
				}
				JOINT Shoulder_R
				{
					OFFSET 12.9945 -0.242716 -4.98039
					CHANNELS 6 Xposition Yposition Zposition Zrotation Xrotation Yrotation 
					JOINT UpperArm_R
					{
						OFFSET -5.34813 0.0 0.0
						CHANNELS 6 Xposition Yposition Zposition Zrotation Xrotation Yrotation 
						JOINT LowerArm_R
						{
							OFFSET -24.3289 0.000322201 0.0
							CHANNELS 6 Xposition Yposition Zposition Zrotation Xrotation Yrotation 
							JOINT Hand_R
							{
								OFFSET -22.2915 -0.000108084 0.0
								CHANNELS 6 Xposition Yposition Zposition Zrotation Xrotation Yrotation 
								End Site
								{
									OFFSET 0.0 0.0 0.0
								}
							}
						}
					}
				}
			}
		}
		JOINT UpperLeg_L
		{
			OFFSET -2.19248 -6.46944 0.0
			CHANNELS 6 Xposition Yposition Zposition Zrotation Xrotation Yrotation 
			JOINT LowerLeg_L
			{
				OFFSET 39.0811 0.0 -1.23785e-05
				CHANNELS 6 Xposition Yposition Zposition Zrotation Xrotation Yrotation 
				JOINT Foot_L
				{
					OFFSET 40.9854 0.0 -1.26872e-05
					CHANNELS 6 Xposition Yposition Zposition Zrotation Xrotation Yrotation 
					JOINT Toes_L
					{
						OFFSET 11.7543 0.0 0.0
						CHANNELS 6 Xposition Yposition Zposition Zrotation Xrotation Yrotation 
						End Site
						{
							OFFSET 0.0 0.0 0.0
						}
					}
				}
			}
		}
		JOINT UpperLeg_R
		{
			OFFSET -2.19251 6.46944 0.0
			CHANNELS 6 Xposition Yposition Zposition Zrotation Xrotation Yrotation 
			JOINT LowerLeg_R
			{
				OFFSET -39.0811 -0.00228153 -0.0401928
				CHANNELS 6 Xposition Yposition Zposition Zrotation Xrotation Yrotation 
				JOINT Foot_R
				{
					OFFSET -40.9854 0.0 0.0
					CHANNELS 6 Xposition Yposition Zposition Zrotation Xrotation Yrotation 
					JOINT Toes_R
					{
						OFFSET -11.7543 0.0 0.0
						CHANNELS 6 Xposition Yposition Zposition Zrotation Xrotation Yrotation 
						End Site
						{
							OFFSET 0.0 0.0 0.0
						}
					}
				}
			}
		}
	}
}
MOTION
Frames:	8
Frame Time:	0.0333333
0.000000 0.000000 0.000000 0.000000 0.000000 -0.000000 138.690000 86.716900 -99.697400 86.834500 -2.975230 2.817190 15.735700 0.000005 -0.000001 80.807400 82.501500 -78.189000 8.984550 -0.406207 -0.000000 7.103580 -2.402490 5.381000 16.377300 -0.000001 -0.000001 -1.367890 -6.434370 2.315240 6.456720 -0.000001 -0.000000 -7.570780 -4.985510 -3.042440 12.994200 -0.242716 4.980390 -90.882500 2.722960 -72.030000 5.348090 -0.000007 -0.000001 -68.861900 48.018300 10.619700 24.328600 0.000019 0.000005 -4.405350 -3.756320 -49.593300 22.291600 -0.000001 0.000005 8.562670 5.532060 -7.885090 12.994500 -0.242716 -4.980390 87.451300 12.459200 -78.343100 -5.348130 -0.000001 -0.000004 -53.030900 41.029100 -27.670900 -24.328900 0.000322 -0.000009 -21.994600 5.514490 -103.399000 -22.291500 -0.000108 -0.000004 22.062100 5.572640 -9.830160 -2.192480 -6.469440 -0.000000 -175.406000 -6.712150 -13.666900 39.081100 -0.000007 -0.000012 0.039930 -0.007969 78.703500 40.985400 -0.000006 -0.000013 7.662730 -8.859410 -45.977300 11.754300 -0.000000 0.000003 -0.009227 -0.097778 -20.559700 -2.192510 6.469440 -0.000001 -175.725000 7.709450 162.025000 -39.081100 -0.002282 -0.040193 0.070062 -0.058152 48.963700 -40.985400 0.000008 0.000006 8.764730 1.898900 -77.488500 -11.754300 -0.000006 -0.000006 -0.003935 -0.050764 -18.638000
0.000000 0.000000 0.000000 0.000000 0.000000 -0.000000 139.262000 88.346400 -95.930000 88.015200 -5.186870 2.596200 15.735700 0.000005 -0.000001 94.788100 82.783800 -92.889200 8.984550 -0.406207 -0.000000 6.600230 1.181660 3.725550 16.377300 -0.000001 -0.000001 -0.971152 -7.579140 2.913050 6.456720 -0.000001 -0.000000 -7.646520 -8.485200 -1.368060 12.994200 -0.242716 4.980390 -90.032700 0.094312 -70.785400 5.348090 -0.000007 -0.000001 -73.038200 50.922900 21.530200 24.328600 0.000019 0.000005 -5.800780 -4.002920 -55.510900 22.291600 -0.000001 0.000005 7.078580 5.534800 -8.009120 12.994500 -0.242716 -4.980390 88.239800 9.212670 -79.134500 -5.348130 -0.000001 -0.000004 -49.523100 40.450700 -40.073600 -24.328900 0.000322 -0.000009 -15.289300 6.339610 -112.003000 -22.291500 -0.000108 -0.000004 20.814200 5.587360 -10.614900 -2.192480 -6.469440 -0.000000 -178.444000 -7.108200 -19.713900 39.081100 -0.000007 -0.000012 0.003508 -0.000638 79.567000 40.985400 -0.000006 -0.000013 8.709000 -11.177900 -49.575500 11.754300 -0.000000 0.000003 -0.008301 -0.090483 -20.261700 -2.192510 6.469440 -0.000001 -178.129000 7.216670 167.547000 -39.081100 -0.002282 -0.040193 0.051356 -0.051778 42.882600 -40.985400 0.000008 0.000006 8.298760 4.365880 -76.848100 -11.754300 -0.000006 -0.000006 -0.004405 -0.055584 -18.834300
0.000000 0.000000 0.000000 0.000000 0.000000 -0.000000 139.953000 90.082800 -92.156000 89.656800 -5.833200 1.864910 15.735700 0.000005 -0.000001 104.880000 82.933500 -103.943000 8.984550 -0.406207 -0.000000 5.873360 3.604400 1.686580 16.377300 -0.000001 -0.000001 -0.620876 -8.472740 3.324360 6.456720 -0.000001 -0.000000 -7.296960 -11.166700 -0.498612 12.994200 -0.242716 4.980390 -89.074300 -2.572460 -70.202800 5.348090 -0.000007 -0.000001 -75.699000 50.717600 30.555100 24.328600 0.000019 0.000005 -5.480240 -2.893480 -62.249200 22.291600 -0.000001 0.000005 5.963470 5.538890 -8.192720 12.994500 -0.242716 -4.980390 88.983900 5.525420 -79.565500 -5.348130 -0.000001 -0.000004 -47.587900 38.666600 -49.385100 -24.328900 0.000322 -0.000009 -13.496200 7.262020 -117.775000 -22.291500 -0.000108 -0.000004 20.904000 5.568280 -9.606830 -2.192480 -6.469440 -0.000000 178.450000 -5.431650 -24.788200 39.081100 -0.000007 -0.000012 -0.017976 0.004567 75.764000 40.985400 -0.000006 -0.000013 7.996230 -11.009100 -53.628700 11.754300 -0.000000 0.000003 -0.007735 -0.085864 -20.073000 -2.192510 6.469440 -0.000001 178.911000 8.103900 173.038000 -39.081100 -0.002282 -0.040193 0.034156 -0.043610 35.289100 -40.985400 0.000008 0.000006 7.702430 6.577780 -74.738900 -11.754300 -0.000006 -0.000006 -0.005532 -0.066522 -19.280100
0.000000 0.000000 0.000000 0.000000 0.000000 -0.000000 140.474000 91.492800 -88.368700 91.152000 -6.009200 0.561875 15.735700 0.000005 -0.000001 112.155000 83.071700 -112.212000 8.984550 -0.406207 -0.000000 5.086790 5.216040 -0.345618 16.377300 -0.000001 -0.000001 -0.322245 -9.144570 3.800460 6.456720 -0.000001 -0.000000 -7.308430 -12.470300 -0.089379 12.994200 -0.242716 4.980390 -88.226300 -4.865180 -69.941800 5.348090 -0.000007 -0.000001 -76.543700 48.431700 37.170000 24.328600 0.000019 0.000005 -6.283670 -2.444120 -68.824500 22.291600 -0.000001 0.000005 5.732680 5.538970 -8.195860 12.994500 -0.242716 -4.980390 89.618100 2.131620 -79.842500 -5.348130 -0.000001 -0.000004 -47.322100 36.809000 -54.871700 -24.328900 0.000322 -0.000009 -15.275100 9.353150 -120.755000 -22.291500 -0.000108 -0.000004 21.006300 5.561590 -9.265600 -2.192480 -6.469440 -0.000000 176.582000 -4.138180 -28.420000 39.081100 -0.000007 -0.000012 -0.003133 0.001291 67.695700 40.985400 -0.000006 -0.000013 6.098950 -9.305260 -56.998200 11.754300 -0.000000 0.000003 -0.007779 -0.086232 -20.088000 -2.192510 6.469440 -0.000001 176.262000 10.195400 177.140000 -39.081100 -0.002282 -0.040193 0.022398 -0.034601 28.891500 -40.985400 0.000008 0.000006 7.626710 8.927380 -71.353000 -11.754300 -0.000006 -0.000006 -0.010636 -0.108330 -20.987600
0.000000 0.000000 0.000000 0.000000 0.000000 -0.000000 140.737000 92.359000 -84.559700 91.247000 -5.525210 0.008670 15.735700 0.000005 -0.000001 115.482000 82.988000 -115.976000 8.984550 -0.406207 -0.000000 4.941810 6.033790 -1.248000 16.377300 -0.000001 -0.000001 -0.147683 -9.430950 4.010790 6.456720 -0.000001 -0.000000 -7.493330 -12.983700 0.057601 12.994200 -0.242716 4.980390 -87.560600 -6.740240 -70.049800 5.348090 -0.000007 -0.000001 -76.446500 44.462200 40.847500 24.328600 0.000019 0.000005 -7.089040 -2.130900 -73.353600 22.291600 -0.000001 0.000005 6.326510 5.528100 -7.712970 12.994500 -0.242716 -4.980390 89.965600 0.200592 -80.271700 -5.348130 -0.000001 -0.000004 -47.456700 36.061400 -56.284800 -24.328900 0.000322 -0.000009 -17.159600 10.902100 -121.488000 -22.291500 -0.000108 -0.000004 21.588400 5.562020 -9.286520 -2.192480 -6.469440 -0.000000 176.726000 -4.298770 -29.292600 39.081100 -0.000007 -0.000012 0.014975 -0.009936 56.423100 40.985400 -0.000006 -0.000013 4.601960 -7.780880 -60.396800 11.754300 -0.000000 0.000003 -0.008005 -0.088087 -20.163800 -2.192510 6.469440 -0.000001 174.061000 16.128200 -178.961000 -39.081100 -0.002282 -0.040193 0.014285 -0.023432 25.093800 -40.985400 0.000008 0.000006 8.248040 14.591100 -68.040700 -11.754300 -0.000006 -0.000006 -0.023421 -0.185549 -24.161000
0.000000 0.000000 0.000000 0.000000 0.000000 -0.000000 140.883000 92.357600 -80.515600 90.374400 -4.736540 0.195434 15.735700 0.000005 -0.000001 116.496000 82.701100 -116.905000 8.984550 -0.406207 -0.000000 5.349250 6.506770 -1.122860 16.377300 -0.000001 -0.000001 -0.269710 -9.452140 3.454400 6.456720 -0.000001 -0.000000 -7.469470 -13.464100 0.286895 12.994200 -0.242716 4.980390 -87.224400 -7.823840 -70.396500 5.348090 -0.000007 -0.000001 -75.491200 40.085400 40.910500 24.328600 0.000019 0.000005 -6.777760 -1.679690 -76.148000 22.291600 -0.000001 0.000005 6.980920 5.511490 -7.004480 12.994500 -0.242716 -4.980390 89.976400 0.139754 -80.408100 -5.348130 -0.000001 -0.000004 -47.074400 36.963000 -54.349300 -24.328900 0.000322 -0.000009 -19.511300 11.361200 -119.073000 -22.291500 -0.000108 -0.000004 22.393300 5.574200 -9.904820 -2.192480 -6.469440 -0.000000 177.769000 -6.755160 -27.979200 39.081100 -0.000007 -0.000012 0.017340 -0.017702 44.402800 40.985400 -0.000006 -0.000013 0.955537 -5.989860 -63.426300 11.754300 -0.000000 0.000003 -0.007716 -0.085710 -20.066700 -2.192510 6.469440 -0.000001 172.285000 20.908100 -175.515000 -39.081100 -0.002282 -0.040193 0.013270 -0.021514 24.835500 -40.985400 0.000008 0.000006 8.929040 19.425000 -66.406700 -11.754300 -0.000006 -0.000006 -0.043391 -0.273352 -27.812000
0.000000 0.000000 0.000000 0.000000 0.000000 -0.000000 141.003000 91.647200 -76.218000 89.308600 -4.072430 0.613272 15.735700 0.000005 -0.000001 117.006000 82.540400 -117.155000 8.984550 -0.406207 -0.000000 5.565690 6.761350 -0.626872 16.377300 -0.000001 -0.000001 -0.077141 -9.248860 2.837450 6.456720 -0.000001 -0.000000 -7.177320 -13.746900 0.259155 12.994200 -0.242716 4.980390 -87.393200 -7.430610 -70.605100 5.348090 -0.000007 -0.000001 -73.439200 35.987400 38.357300 24.328600 0.000019 0.000005 -5.263990 -1.028870 -78.976200 22.291600 -0.000001 0.000005 8.052310 5.500680 -6.563280 12.994500 -0.242716 -4.980390 89.750000 1.513820 -80.621600 -5.348130 -0.000001 -0.000004 -48.128200 39.566500 -47.807700 -24.328900 0.000322 -0.000009 -20.799900 9.700080 -113.919000 -22.291500 -0.000108 -0.000004 22.618400 5.574080 -9.898940 -2.192480 -6.469440 -0.000000 178.278000 -10.350700 -26.460800 39.081100 -0.000007 -0.000012 0.012971 -0.018046 35.704900 40.985400 -0.000006 -0.000013 0.878146 -4.703670 -63.959400 11.754300 -0.000000 0.000003 -0.008010 -0.088128 -20.165400 -2.192510 6.469440 -0.000001 172.427000 19.141400 -173.961000 -39.081100 -0.002282 -0.040193 0.026413 -0.043541 27.954400 -40.985400 0.000008 0.000006 8.787440 18.127700 -65.686000 -11.754300 -0.000006 -0.000006 -0.066102 -0.351114 -31.096600
0.000000 0.000000 0.000000 0.000000 0.000000 -0.000000 141.307000 90.402600 -71.538200 88.603500 -3.467960 1.020040 15.735700 0.000005 -0.000001 116.022000 82.639000 -116.024000 8.984550 -0.406207 -0.000000 5.490970 6.443910 -0.313622 16.377300 -0.000001 -0.000001 0.426343 -8.935550 2.598590 6.456720 -0.000001 -0.000000 -6.575060 -13.496400 0.324727 12.994200 -0.242716 4.980390 -88.121000 -5.286870 -70.401300 5.348090 -0.000007 -0.000001 -70.609700 32.223600 33.755000 24.328600 0.000019 0.000005 -4.449190 -0.609109 -82.222000 22.291600 -0.000001 0.000005 9.752380 5.491450 -6.193970 12.994500 -0.242716 -4.980390 89.363800 3.906730 -80.744500 -5.348130 -0.000001 -0.000004 -51.237300 42.371800 -37.473800 -24.328900 0.000322 -0.000009 -20.076600 5.947580 -105.821000 -22.291500 -0.000108 -0.000004 22.316100 5.554460 -8.917610 -2.192480 -6.469440 -0.000000 177.923000 -14.637900 -25.502500 39.081100 -0.000007 -0.000012 0.011631 -0.017990 32.880400 40.985400 -0.000006 -0.000013 0.845767 -4.953450 -66.028800 11.754300 -0.000000 0.000003 -0.008596 -0.092839 -20.357900 -2.192510 6.469440 -0.000001 173.467000 13.928400 -173.239000 -39.081100 -0.002282 -0.040193 0.040722 -0.058923 32.421500 -40.985400 0.000008 0.000006 7.571000 14.350300 -65.137900 -11.754300 -0.000006 -0.000006 -0.105373 -0.457695 -35.702700
